<?xml version="1.0" encoding="utf-8"?>
<svg viewBox="-14.039 5.809 304.761 317.162" xmlns="http://www.w3.org/2000/svg">
  <g transform="matrix(0.1, 0, 0, -0.1, 0, 318)" fill="#000000" stroke="none">
    <path d="M1260 3027 c-88 -32 -144 -69 -213 -140 -193 -200 -222 -553 -65 -795 114 -176 314 -273 500 -243 309 49 519 382 454 721 -36 193 -152 352 -314 432 -79 40 -88 42 -190 45 -93 3 -115 1 -172 -20z" style="fill: rgb(155, 17, 30);"/>
    <path d="M980 1866 c-91 -38 -181 -86 -257 -138 -108 -75 -108 -72 4 -98 208 -48 433 -143 602 -255 l83 -55 92 59 c172 111 354 189 566 242 63 16 119 31 124 32 15 5 -126 104 -215 151 -46 24 -112 54 -147 67 l-63 22 -30 -22 c-47 -35 -148 -79 -208 -92 -32 -6 -97 -9 -151 -6 -105 5 -170 25 -264 82 -32 19 -64 35 -70 34 -6 0 -36 -11 -66 -23z" style="fill: rgb(155, 17, 30);"/>
    <path d="M294 1577 c-2 -7 -3 -76 -2 -152 l3 -140 60 -6 c107 -10 183 -71 212 -168 44 -153 -68 -299 -229 -301 l-48 0 0 -183 0 -184 137 -12 c321 -28 610 -125 853 -284 l85 -56 3 566 c2 443 -1 569 -10 581 -22 26 -147 103 -259 159 -194 97 -420 160 -653 182 -139 14 -146 14 -152 -2z"/>
    <path d="M2372 1579 c-294 -28 -586 -129 -824 -284 l-88 -57 0 -574 0 -574 84 55 c266 171 556 266 894 290 l92 7 0 184 0 184 -45 0 c-127 0 -235 108 -235 235 0 54 28 125 63 164 34 37 115 71 170 71 l47 0 0 155 0 155 -37 -1 c-21 -1 -75 -5 -121 -10z"/>
    <path d="M227 1196 c-48 -18 -71 -38 -91 -81 -22 -45 -20 -98 4 -146 32 -62 69 -79 170 -79 74 0 90 3 121 24 96 65 88 220 -14 272 -43 23 -143 28 -190 10z" style="fill: rgb(155, 17, 30);"/>
    <path d="M2437 1196 c-128 -46 -150 -208 -37 -283 27 -19 47 -23 112 -23 88 0 121 12 161 60 51 60 47 138 -10 201 -52 57 -141 75 -226 45z" style="fill: rgb(155, 17, 30);"/>
  </g>
</svg>
