<?xml version="1.0" encoding="utf-8"?>
<svg viewBox="123.505 64.63 24.978 57.945" xmlns="http://www.w3.org/2000/svg">
  <g transform="matrix(0.02618, 0, 0, -0.026914, 113.926376, 121.667381)" fill="#000000" stroke="none" style="">
    <path d="M815 1971 c-148 -67 -179 -260 -60 -370 89 -82 211 -82 301 1 82 75 97 189 38 285 -56 90 -182 129 -279 84z" style="stroke: rgb(155, 17, 30); paint-order: fill; stroke-width: 0px; fill: rgb(155, 17, 30);"/>
    <path d="M1300 1623 l0 -367 -74 106 c-48 67 -85 109 -103 117 -19 7 -78 11 -170 9 l-141 -3 62 -138 c35 -75 66 -140 69 -144 4 -3 12 -1 19 5 7 5 33 15 58 22 25 6 51 13 58 15 9 3 6 18 -13 55 -14 27 -23 50 -20 50 6 0 75 -102 75 -112 0 -4 -33 -17 -72 -29 -88 -25 -98 -33 -98 -71 0 -42 40 -78 87 -78 61 0 224 27 236 39 6 6 15 11 19 11 4 0 8 -241 8 -535 l0 -535 195 0 195 0 0 975 0 975 -195 0 -195 0 0 -367z" style="stroke: rgb(155, 17, 30); paint-order: fill; stroke-width: 0px; fill: rgb(155, 17, 30);"/>
    <path d="M670 1439 c-30 -5 -70 -14 -88 -20 -25 -8 -43 -7 -82 6 -28 9 -54 15 -59 13 -5 -2 27 -75 72 -163 l82 -160 59 -33 59 -33 108 18 c130 20 128 1 26 226 -80 176 -66 164 -177 146z" style="stroke: rgb(155, 17, 30); paint-order: fill; stroke-width: 0px;"/>
    <path d="M426 1294 c-22 -21 -20 -56 5 -88 19 -24 57 -35 71 -20 7 7 -43 124 -53 124 -4 0 -15 -7 -23 -16z" style="stroke: rgb(155, 17, 30); paint-order: fill; stroke-width: 0px; fill: rgb(155, 17, 30);"/>
    <path d="M815 1020 c-55 -10 -101 -19 -102 -19 -2 -1 -3 -13 -3 -27 0 -15 -23 -110 -51 -213 -43 -160 -54 -217 -75 -409 -25 -236 -24 -247 18 -276 29 -21 61 -20 87 2 18 14 27 53 60 247 38 218 80 383 79 310 0 -16 -5 -70 -11 -120 -17 -131 -3 -441 22 -475 24 -34 63 -47 95 -32 48 22 54 45 61 237 l7 180 73 185 c85 215 105 284 105 370 l0 63 -72 -8 c-79 -9 -81 -9 -148 -1 -25 3 -90 -4 -145 -14z" style="stroke: rgb(155, 17, 30); paint-order: fill; stroke-width: 0px; fill: rgb(155, 17, 30);"/>
  </g>
  <rect x="147.775" y="67.076" width="13.088" height="56.568" style="stroke: rgb(0, 0, 0); fill: rgb(255, 255, 255); stroke-width: 0px;"/>
</svg>