<?xml version="1.0" encoding="utf-8"?>
<svg viewBox="147.699 78.627 77.366 21.953" xmlns="http://www.w3.org/2000/svg">
  <g transform="matrix(0.759556, 0, 0, 0.772356, 51.670815, 12.921373)" style="">
    <g transform="matrix(0.361447, 0, 0, 0.362925, 129.603104, 65.908028)" style="">
      <g transform="matrix(0.02618, 0, 0, -0.026914, 115.085159, 122.942039)" fill="#000000" stroke="none" style="">
        <path d="M815 1971 c-148 -67 -179 -260 -60 -370 89 -82 211 -82 301 1 82 75 97 189 38 285 -56 90 -182 129 -279 84z" style="stroke: rgb(155, 17, 30); paint-order: fill; stroke-width: 0px; fill: rgb(155, 17, 30);"/>
        <path d="M1300 1623 l0 -367 -74 106 c-48 67 -85 109 -103 117 -19 7 -78 11 -170 9 l-141 -3 62 -138 c35 -75 66 -140 69 -144 4 -3 12 -1 19 5 7 5 33 15 58 22 25 6 51 13 58 15 9 3 6 18 -13 55 -14 27 -23 50 -20 50 6 0 75 -102 75 -112 0 -4 -33 -17 -72 -29 -88 -25 -98 -33 -98 -71 0 -42 40 -78 87 -78 61 0 224 27 236 39 6 6 15 11 19 11 4 0 8 -241 8 -535 l0 -535 195 0 195 0 0 975 0 975 -195 0 -195 0 0 -367z" style="stroke: rgb(155, 17, 30); paint-order: fill; stroke-width: 0px; fill: rgb(155, 17, 30);"/>
        <path d="M670 1439 c-30 -5 -70 -14 -88 -20 -25 -8 -43 -7 -82 6 -28 9 -54 15 -59 13 -5 -2 27 -75 72 -163 l82 -160 59 -33 59 -33 108 18 c130 20 128 1 26 226 -80 176 -66 164 -177 146z" style="stroke: rgb(155, 17, 30); paint-order: fill; stroke-width: 0px;"/>
        <path d="M426 1294 c-22 -21 -20 -56 5 -88 19 -24 57 -35 71 -20 7 7 -43 124 -53 124 -4 0 -15 -7 -23 -16z" style="stroke: rgb(155, 17, 30); paint-order: fill; stroke-width: 0px; fill: rgb(155, 17, 30);"/>
        <path d="M815 1020 c-55 -10 -101 -19 -102 -19 -2 -1 -3 -13 -3 -27 0 -15 -23 -110 -51 -213 -43 -160 -54 -217 -75 -409 -25 -236 -24 -247 18 -276 29 -21 61 -20 87 2 18 14 27 53 60 247 38 218 80 383 79 310 0 -16 -5 -70 -11 -120 -17 -131 -3 -441 22 -475 24 -34 63 -47 95 -32 48 22 54 45 61 237 l7 180 73 185 c85 215 105 284 105 370 l0 63 -72 -8 c-79 -9 -81 -9 -148 -1 -25 3 -90 -4 -145 -14z" style="stroke: rgb(155, 17, 30); paint-order: fill; stroke-width: 0px; fill: rgb(155, 17, 30);"/>
      </g>
      <rect x="147.775" y="67.076" width="13.088" height="56.568" style="stroke: rgb(0, 0, 0); fill: rgb(255, 255, 255); stroke-width: 0px;"/>
    </g>
    <path d="M 129.724 110.287 Q 129.427 110.287 129.251 110.031 Q 129.076 109.774 129.076 109.396 L 129.13 104.86 Q 129.211 101.566 129.211 99.757 Q 129.211 93.466 128.509 90.118 Q 128.914 89.497 129.535 89.497 Q 130.534 89.497 131.357 89.942 Q 132.181 90.388 132.721 91.144 Q 133.774 92.71 133.774 94.654 Q 133.774 96.679 132.91 98.272 Q 132.046 99.865 130.399 100.756 L 130.453 103.483 L 130.507 104.914 Q 130.534 105.373 130.534 106.237 Q 130.615 108.046 130.615 109.18 Q 130.615 109.693 130.399 109.99 Q 130.183 110.287 129.724 110.287 Z M 130.345 99.46 Q 131.398 98.461 131.897 97.368 Q 132.397 96.274 132.397 94.897 L 132.397 94.87 Q 132.397 94.249 132.262 93.304 Q 132.181 92.98 131.965 92.656 Q 131.749 92.332 131.722 92.278 Q 131.533 92.008 130.723 91.441 L 130.021 90.928 Q 130.021 92.305 130.183 95.194 L 130.345 99.46 Z" style="text-transform: uppercase; white-space: pre;"/>
    <path d="M 149.931 110.152 Q 149.499 110.152 149.297 109.99 Q 149.094 109.828 149.094 109.45 L 149.094 105.913 Q 148.743 105.67 147.771 105.481 Q 146.799 105.292 145.935 105.238 Q 145.638 105.805 145.503 106.615 L 145.395 107.155 Q 145.368 107.344 145.233 107.992 Q 145.098 108.64 144.936 109.113 Q 144.774 109.585 144.612 109.855 Q 143.586 109.855 143.424 109.315 Q 143.721 108.883 144.099 106.777 L 144.99 101.836 Q 145.584 98.326 146.084 95.842 Q 146.583 93.358 147.15 91.684 Q 147.771 89.821 148.338 89.821 Q 148.905 89.821 149.202 90.037 Q 149.202 91.117 149.715 95.248 Q 150.255 99.298 150.255 100.783 Q 150.255 102.214 150.552 104.887 Q 150.822 107.614 150.822 109.234 Q 150.822 110.152 149.931 110.152 Z M 148.527 104.347 Q 148.743 104.347 149.067 104.266 Q 148.986 103.078 148.797 101.323 Q 148.176 95.221 148.176 93.844 L 148.176 93.628 Q 147.906 93.898 147.434 96.072 Q 146.961 98.245 146.556 100.729 Q 146.151 103.213 146.124 104.023 Q 147.258 104.347 148.527 104.347 Z" style="text-transform: uppercase; white-space: pre;"/>
    <path d="M 167.461 110.854 Q 165.976 110.854 165.004 109.963 Q 164.221 109.315 163.573 107.749 Q 163.168 106.723 162.925 104.86 Q 162.736 103.348 162.736 101.998 Q 162.709 101.647 162.709 100.783 L 162.709 99.865 L 162.709 98.785 Q 162.709 97.624 162.79 96.004 Q 162.898 94.627 163.222 93.196 Q 163.573 91.792 164.248 90.82 Q 164.923 89.794 166.057 89.362 Q 166.732 89.173 167.326 89.173 Q 168.46 89.173 168.46 89.929 Q 168.46 90.226 168.257 90.401 Q 168.055 90.577 167.731 90.577 Q 167.623 90.577 167.353 90.496 L 166.975 90.442 Q 166.462 90.442 166.057 90.752 Q 165.652 91.063 165.382 91.657 Q 164.761 92.953 164.545 94.492 Q 164.248 96.382 164.221 97.786 Q 164.167 99.001 164.167 100.351 L 164.167 101.08 Q 164.14 101.458 164.14 102.025 Q 164.14 103.402 164.275 104.725 Q 164.383 106.291 164.869 107.425 Q 165.301 108.694 166.273 109.207 Q 166.732 109.477 167.407 109.477 Q 168.595 109.477 169.405 108.343 Q 169.378 107.398 169.27 106.494 Q 169.162 105.589 168.946 105.265 Q 168.919 105.265 168.824 105.279 Q 168.73 105.292 168.541 105.319 L 167.893 105.373 Q 166.975 105.373 166.975 104.59 Q 166.975 104.347 167.245 104.158 Q 167.515 103.969 167.974 103.888 Q 168.73 103.699 169.324 103.699 Q 169.864 103.699 170.161 104.104 Q 170.458 104.509 170.458 105.13 Q 170.458 106.021 170.728 107.56 Q 170.998 109.072 170.998 109.963 Q 170.998 110.26 170.809 110.476 Q 170.62 110.692 170.35 110.692 Q 169.675 110.692 169.432 110.125 L 169.432 110.098 L 168.838 110.395 Q 168.028 110.854 167.461 110.854 Z" style="text-transform: uppercase; white-space: pre;"/>
    <path d="M 183.948 110.125 Q 181.626 110.125 181.626 109.315 Q 181.626 108.667 182.436 108.667 L 182.76 108.667 Q 182.868 108.694 183.003 108.694 Q 183.219 108.694 183.314 108.559 Q 183.408 108.424 183.408 108.073 Q 183.408 105.778 183.138 101.809 Q 182.895 97.678 182.895 95.572 Q 182.895 94.816 182.922 94.195 L 182.949 92.818 Q 182.949 91.927 182.868 91.333 Q 182.571 91.441 182.247 91.441 Q 181.626 91.441 181.626 90.793 Q 181.626 90.469 182.018 90.226 Q 182.409 89.983 183.03 89.875 Q 184.164 89.686 184.947 89.686 Q 185.271 89.686 185.501 89.902 Q 185.73 90.118 185.73 90.415 Q 185.73 90.712 185.555 90.928 Q 185.379 91.144 185.109 91.144 Q 184.947 91.144 184.839 91.117 L 184.623 91.117 Q 184.353 91.117 184.232 91.238 Q 184.11 91.36 184.11 91.684 Q 184.11 94.546 184.461 99.568 Q 184.785 104.833 184.785 107.479 L 184.785 108.505 Q 184.974 108.478 185.325 108.478 Q 186.459 108.478 186.459 109.423 L 186.459 109.585 L 185.784 110.044 Q 185.757 110.044 185.622 110.058 Q 185.487 110.071 185.082 110.071 Q 184.164 110.125 183.948 110.125 Z" style="text-transform: uppercase; white-space: pre;"/>
    <path d="M 204.941 110.557 Q 204.401 110.557 202.727 104.995 Q 200.837 98.488 199.46 93.034 L 199.46 101.89 Q 199.46 103.024 199.676 105.751 Q 199.865 108.721 199.865 109.585 Q 199.865 109.828 199.568 110.004 Q 199.271 110.179 198.893 110.179 Q 198.326 110.179 198.326 109.747 L 198.38 108.964 Q 198.434 108.1 198.434 107.83 Q 198.434 106.399 198.272 103.294 Q 198.11 100.135 198.11 99.46 L 198.11 96.004 Q 198.11 95.167 198.191 93.52 Q 198.299 92.089 198.299 91.036 L 198.299 90.874 Q 198.299 89.524 198.893 89.524 Q 199.244 89.524 199.784 90.712 Q 200.675 92.656 202.052 97.678 Q 202.835 100.594 203.888 105.184 Q 203.861 105.076 204.32 107.047 L 204.347 107.182 Q 204.347 104.563 204.401 102.484 L 204.455 97.786 L 204.455 89.794 Q 204.563 89.119 205.319 89.119 Q 206.048 89.119 206.048 90.172 L 206.048 90.334 Q 205.886 90.658 205.886 91.117 Q 205.886 92.764 205.805 96.085 Q 205.724 99.433 205.724 101.107 L 205.724 109.342 Q 205.724 109.774 205.494 110.166 Q 205.265 110.557 204.941 110.557 Z" style="text-transform: uppercase; white-space: pre;"/>
    <path d="M 224.846 110.773 Q 224.684 110.773 224.522 110.719 Q 224.387 110.692 224.225 110.692 Q 223.496 106.561 222.767 103.78 Q 222.038 100.999 220.931 98.542 L 220.364 99.595 Q 220.121 100.054 220.094 100.405 Q 220.013 101.215 220.013 101.593 Q 220.013 102.403 220.094 104.077 Q 220.175 105.724 220.175 106.588 L 220.175 108.802 Q 220.175 110.233 219.257 110.233 Q 218.474 110.233 218.474 108.721 Q 218.474 107.533 218.636 105.076 Q 218.825 102.808 218.825 101.458 L 218.852 99.136 L 218.852 96.328 Q 218.852 94.843 218.663 93.223 Q 218.474 91.549 218.474 90.685 Q 218.474 90.334 218.69 90.091 Q 218.906 89.848 219.23 89.848 Q 220.229 89.848 220.229 92.035 L 220.121 97.57 L 220.634 96.247 Q 221.525 93.979 222.47 91.765 Q 223.01 90.55 223.442 89.848 Q 223.901 89.119 224.171 89.119 Q 224.468 89.119 224.697 89.321 Q 224.927 89.524 224.927 89.821 Q 224.927 90.091 223.469 93.169 Q 222.038 96.112 221.795 97.084 L 221.795 97.57 Q 222.2 98.596 223.955 104.145 Q 225.71 109.693 225.71 110.017 Q 225.71 110.341 225.453 110.557 Q 225.197 110.773 224.846 110.773 Z" style="text-transform: uppercase; white-space: pre;"/>
  </g>
</svg>