<?xml version="1.0" standalone="no"?>
<!DOCTYPE svg PUBLIC "-//W3C//DTD SVG 1.0//EN" "http://www.w3.org/TR/2001/REC-SVG-20010904/DTD/svg10.dtd">
<svg xmlns="http://www.w3.org/2000/svg" xmlns:xlink="http://www.w3.org/1999/xlink" id="body_1" width="192" height="192">

<g transform="matrix(3.313487 0 0 3.313487 -352.94104 -212.06317)">
	<g transform="matrix(0.02618 0 -0 -0.026914 113.92638 121.66738)">
        <path d="M815 1971C 667 1904 636 1711 755 1601C 844 1519 966 1519 1056 1602C 1138 1677 1153 1791 1094 1887C 1038 1977 912 2016 815 1971z" stroke="none" fill="#9B111E" fill-rule="nonzero" />
        <path d="M1300 1623L1300 1256L1226 1362C 1178 1429 1141 1471 1123 1479C 1104 1486 1045 1490 953 1488L953 1488L812 1485L874 1347C 909 1272 940 1207 943 1203C 947 1200 955 1202 962 1208C 969 1213 995 1223 1020 1230C 1045 1236 1071 1243 1078 1245C 1087 1248 1084 1263 1065 1300C 1051 1327 1042 1350 1045 1350C 1051 1350 1120 1248 1120 1238C 1120 1234 1087 1221 1048 1209C 960 1184 950 1176 950 1138C 950 1096 990 1060 1037 1060C 1098 1060 1261 1087 1273 1099C 1279 1105 1288 1110 1292 1110C 1296 1110 1300 869 1300 575L1300 575L1300 40L1495 40L1690 40L1690 1015L1690 1990L1495 1990L1300 1990L1300 1623z" stroke="none" fill="#9B111E" fill-rule="nonzero" />
        <path d="M670 1439C 640 1434 600 1425 582 1419C 557 1411 539 1412 500 1425C 472 1434 446 1440 441 1438C 436 1436 468 1363 513 1275L513 1275L595 1115L654 1082L713 1049L821 1067C 951 1087 949 1068 847 1293C 767 1469 781 1457 670 1439z" stroke="none" fill="#000000" fill-rule="nonzero" />
        <path d="M426 1294C 404 1273 406 1238 431 1206C 450 1182 488 1171 502 1186C 509 1193 459 1310 449 1310C 445 1310 434 1303 426 1294z" stroke="none" fill="#9B111E" fill-rule="nonzero" />
        <path d="M815 1020C 760 1010 714 1001 713 1001C 711 1000 710 988 710 974C 710 959 687 864 659 761C 616 601 605 544 584 352C 559 116 560 105 602 76C 631 55 663 56 689 78C 707 92 716 131 749 325C 787 543 829 708 828 635C 828 619 823 565 817 515C 800 384 814 74 839 40C 863 6 902 -7 934 8C 982 30 988 53 995 245L995 245L1002 425L1075 610C 1160 825 1180 894 1180 980L1180 980L1180 1043L1108 1035C 1029 1026 1027 1026 960 1034C 935 1037 870 1030 815 1020z" stroke="none" fill="#9B111E" fill-rule="nonzero" />
	</g>
    <path d="M147.775 67.076L160.86299 67.076L160.86299 123.644L147.775 123.644z" stroke="none" fill="#000000" fill-rule="nonzero" />
</g>
</svg>