<?xml version="1.0" encoding="utf-8"?>
<svg viewBox="27.464 54.014 261.835 78.618" xmlns="http://www.w3.org/2000/svg">
  <g transform="matrix(0.02618, 0, 0, -0.026914, 151.226898, 121.667381)" fill="#000000" stroke="none" style="">
    <path d="M815 1971 c-148 -67 -179 -260 -60 -370 89 -82 211 -82 301 1 82 75 97 189 38 285 -56 90 -182 129 -279 84z" style="stroke: rgb(155, 17, 30); paint-order: fill; stroke-width: 0px; fill: rgb(155, 17, 30);"/>
    <path d="M1300 1623 l0 -367 -74 106 c-48 67 -85 109 -103 117 -19 7 -78 11 -170 9 l-141 -3 62 -138 c35 -75 66 -140 69 -144 4 -3 12 -1 19 5 7 5 33 15 58 22 25 6 51 13 58 15 9 3 6 18 -13 55 -14 27 -23 50 -20 50 6 0 75 -102 75 -112 0 -4 -33 -17 -72 -29 -88 -25 -98 -33 -98 -71 0 -42 40 -78 87 -78 61 0 224 27 236 39 6 6 15 11 19 11 4 0 8 -241 8 -535 l0 -535 195 0 195 0 0 975 0 975 -195 0 -195 0 0 -367z" style="stroke: rgb(155, 17, 30); paint-order: fill; stroke-width: 0px; fill: rgb(155, 17, 30);"/>
    <path d="M670 1439 c-30 -5 -70 -14 -88 -20 -25 -8 -43 -7 -82 6 -28 9 -54 15 -59 13 -5 -2 27 -75 72 -163 l82 -160 59 -33 59 -33 108 18 c130 20 128 1 26 226 -80 176 -66 164 -177 146z" style="stroke: rgb(155, 17, 30); paint-order: fill; stroke-width: 0px;"/>
    <path d="M426 1294 c-22 -21 -20 -56 5 -88 19 -24 57 -35 71 -20 7 7 -43 124 -53 124 -4 0 -15 -7 -23 -16z" style="stroke: rgb(155, 17, 30); paint-order: fill; stroke-width: 0px; fill: rgb(155, 17, 30);"/>
    <path d="M815 1020 c-55 -10 -101 -19 -102 -19 -2 -1 -3 -13 -3 -27 0 -15 -23 -110 -51 -213 -43 -160 -54 -217 -75 -409 -25 -236 -24 -247 18 -276 29 -21 61 -20 87 2 18 14 27 53 60 247 38 218 80 383 79 310 0 -16 -5 -70 -11 -120 -17 -131 -3 -441 22 -475 24 -34 63 -47 95 -32 48 22 54 45 61 237 l7 180 73 185 c85 215 105 284 105 370 l0 63 -72 -8 c-79 -9 -81 -9 -148 -1 -25 3 -90 -4 -145 -14z" style="stroke: rgb(155, 17, 30); paint-order: fill; stroke-width: 0px; fill: rgb(155, 17, 30);"/>
  </g>
  <path d="M 70.464 67.255 Q 70.464 67.255 71.426 69.216 Q 72.388 71.177 72.388 75.987 Q 72.388 80.797 70.464 84.682 Q 68.54 88.567 65.506 90.861 Q 59.364 95.597 52.778 95.597 L 43.528 95.597 L 43.528 103.959 Q 43.528 105.661 43.417 106.512 Q 43.306 107.363 42.714 108.473 Q 41.678 110.471 36.942 110.471 Q 31.762 110.471 30.874 107.733 Q 30.43 106.475 30.43 103.885 L 30.43 62.815 Q 30.43 61.113 30.541 60.262 Q 30.652 59.411 31.244 58.301 Q 32.28 56.303 37.016 56.303 L 52.852 56.303 Q 59.364 56.303 65.506 61.039 Q 68.54 63.333 70.464 67.255 Z M 52.852 82.499 Q 55.072 82.499 57.218 80.871 Q 59.364 79.243 59.364 75.987 Q 59.364 72.731 57.218 71.066 Q 55.072 69.401 52.778 69.401 L 43.528 69.401 L 43.528 82.499 L 52.852 82.499 Z" style="stroke: rgb(155, 17, 30); stroke-width: 0px; white-space: pre; vector-effect: non-scaling-stroke;"/>
  <path d="M 103.196 75.691 Q 103.64 71.547 109.042 71.547 Q 111.928 71.547 113.334 71.991 Q 114.74 72.435 115.295 73.545 Q 115.85 74.655 115.961 75.506 Q 116.072 76.357 116.072 78.059 L 116.072 103.959 Q 116.072 105.661 115.961 106.512 Q 115.85 107.363 115.332 108.473 Q 114.296 110.397 110.263 110.397 Q 106.23 110.397 104.861 109.398 Q 103.492 108.399 103.27 106.475 Q 100.532 110.397 94.131 110.397 Q 87.73 110.397 82.254 104.551 Q 76.778 98.705 76.778 90.972 Q 76.778 83.239 82.291 77.43 Q 87.804 71.621 94.39 71.621 Q 96.906 71.621 98.978 72.509 Q 101.05 73.397 101.864 74.174 Q 102.678 74.951 103.196 75.691 Z M 89.728 91.083 Q 89.728 91.083 89.728 92.304 Q 89.728 93.525 91.652 95.486 Q 93.576 97.447 96.314 97.447 Q 99.052 97.447 100.865 95.449 Q 102.678 93.451 102.678 91.046 Q 102.678 88.641 100.939 86.569 Q 99.2 84.497 96.277 84.497 Q 93.354 84.497 91.541 86.569 Q 89.728 88.641 89.728 91.083 Z" style="stroke: rgb(155, 17, 30); stroke-width: 0px; white-space: pre; vector-effect: non-scaling-stroke;"/>
  <path d="M 147.406 105.661 Q 144.594 109.361 138.452 109.361 Q 132.31 109.361 126.945 103.7 Q 121.58 98.039 121.58 90.491 Q 121.58 82.943 126.982 77.245 Q 132.384 71.547 138.822 71.547 Q 141.338 71.547 143.41 72.472 Q 145.482 73.397 146.259 74.174 Q 147.036 74.951 147.48 75.617 Q 147.702 73.545 148.997 72.472 Q 150.292 71.399 153.178 71.399 Q 156.064 71.399 157.396 71.843 Q 158.728 72.287 159.283 73.36 Q 159.838 74.433 159.949 75.247 Q 160.06 76.061 160.06 77.763 L 160.06 108.399 Q 160.06 116.909 154.14 122.126 Q 148.22 127.343 140.82 127.343 Q 135.196 127.343 130.09 124.605 Q 124.984 121.867 124.984 119.647 Q 124.984 116.761 127.204 114.541 Q 128.61 112.987 129.387 112.395 Q 130.164 111.803 131.2 111.803 Q 132.236 111.803 133.346 112.691 Q 136.898 115.429 141.042 115.429 Q 143.854 115.429 145.63 113.209 Q 147.406 110.989 147.406 107.881 Z M 134.234 90.528 Q 134.234 90.528 134.234 91.73 Q 134.234 92.933 136.121 94.857 Q 138.008 96.781 140.709 96.781 Q 143.41 96.781 145.186 94.82 Q 146.962 92.859 146.962 90.528 Q 146.962 88.197 145.26 86.162 Q 143.558 84.127 140.672 84.127 Q 137.786 84.127 136.01 86.125 Q 134.234 88.123 134.234 90.528 Z" style="stroke: rgb(155, 17, 30); stroke-width: 0px; white-space: pre; vector-effect: non-scaling-stroke;"/>
  <path d="M 27.85 72.702 Q 27.85 71.27 27.943 70.554 Q 28.037 69.838 28.535 68.904 Q 29.406 67.222 33.392 67.222 Q 37.75 67.222 38.56 69.526 Q 38.871 70.585 38.871 72.764 L 38.871 107.385 Q 38.871 108.88 38.778 109.565 Q 38.684 110.25 38.186 111.184 Q 37.315 112.865 33.329 112.865 Q 28.971 112.865 28.223 110.499 Q 27.85 109.503 27.85 107.323 Z" transform="matrix(1.207918, 0, 0, 1.188406, 150.227722, -12.557158)" style="stroke: rgb(155, 17, 30); stroke-width: 0px; white-space: pre; vector-effect: non-scaling-stroke;"/>
  <path d="M 62.788 80.05 Q 69.015 80.05 73.156 84.813 Q 77.296 89.577 77.296 96.426 L 77.296 107.385 Q 77.296 108.818 77.203 109.534 Q 77.11 110.25 76.674 111.121 Q 75.802 112.803 71.817 112.803 Q 67.396 112.803 66.711 110.499 Q 66.337 109.44 66.337 107.323 L 66.337 96.364 Q 66.337 93.811 64.874 92.379 Q 63.411 90.947 60.951 90.947 Q 58.491 90.947 56.966 92.441 Q 55.44 93.935 55.44 96.364 L 55.44 107.385 Q 55.44 108.818 55.347 109.534 Q 55.253 110.25 54.755 111.121 Q 53.946 112.803 49.961 112.803 Q 46.038 112.803 45.166 111.121 Q 44.73 110.187 44.637 109.471 Q 44.543 108.755 44.543 107.323 L 44.543 85.28 Q 44.543 83.91 44.637 83.194 Q 44.73 82.478 45.228 81.606 Q 46.1 80.05 50.023 80.05 Q 53.821 80.05 54.693 81.482 Q 55.316 82.54 55.316 84.035 Q 55.565 83.599 56.436 82.789 Q 57.308 81.98 58.118 81.482 Q 60.235 80.05 62.788 80.05 Z" transform="matrix(1.207918, 0, 0, 1.188406, 150.227722, -12.557158)" style="stroke: rgb(155, 17, 30); stroke-width: 0px; white-space: pre; vector-effect: non-scaling-stroke;"/>
  <path d="M 102.281 96.426 L 110.562 103.276 Q 112.119 104.583 112.524 105.268 Q 112.928 105.953 112.928 106.576 Q 112.928 108.07 110.998 110.623 Q 108.881 113.239 107.262 113.239 Q 105.892 113.239 103.464 111.433 L 102.841 110.997 Q 101.409 109.814 98.42 106.856 Q 95.431 103.898 93.874 102.653 L 93.874 107.448 Q 93.874 108.88 93.781 109.596 Q 93.688 110.312 93.189 111.246 Q 92.38 112.865 88.395 112.865 Q 84.472 112.865 83.6 111.184 Q 83.164 110.25 83.071 109.534 Q 82.977 108.818 82.977 107.385 L 82.977 70.087 Q 82.977 68.655 83.071 67.938 Q 83.164 67.222 83.6 66.288 Q 84.472 64.607 88.457 64.607 Q 91.446 64.607 92.691 65.666 Q 93.75 66.537 93.812 68.405 Q 93.874 68.966 93.874 70.149 L 93.874 89.888 Q 94.995 88.954 97.268 86.712 Q 99.541 84.471 100.662 83.537 L 101.409 83.038 Q 103.588 81.357 105.145 81.357 Q 106.702 81.357 108.725 83.879 Q 110.749 86.401 110.749 87.833 Q 110.749 89.265 108.445 91.196 Z" transform="matrix(1.207918, 0, 0, 1.188406, 150.227722, -12.557158)" style="stroke: rgb(155, 17, 30); stroke-width: 0px; white-space: pre; vector-effect: non-scaling-stroke;"/>
</svg>